<?xml version="1.0" encoding="UTF-8" standalone="no"?>
<!-- Created with Inkscape (http://www.inkscape.org/) -->

<svg
   version="1.1"
   id="svg1100"
   width="474"
   height="474"
   viewBox="0 0 474 474"
   xmlns="http://www.w3.org/2000/svg"
   xmlns:svg="http://www.w3.org/2000/svg">
  <defs
     id="defs1104" />
  <g
     id="g1106">
    <rect
       style="fill:#cccccc"
       id="rect2006"
       width="293.49979"
       height="363.89886"
       x="92.75"
       y="59.985657"
       ry="16.051363" />
    <rect
       style="fill:#ffffff"
       id="rect2006-9"
       width="293.49979"
       height="363.89886"
       x="84.75"
       y="53.985657"
       ry="16.051363" />
    <rect
       style="fill:#ff7f2a;stroke-width:0.917293"
       id="rect2008"
       width="304"
       height="36.611351"
       x="82.75"
       y="51.192139"
       ry="11.905623"
       rx="0" />
    <rect
       style="fill:#ffffff;stroke-width:1.42598"
       id="rect2181-3-7"
       width="10.634476"
       height="33.049999"
       x="99.427635"
       y="50"
       ry="1.9111063" />
    <rect
       style="fill:#ffffff;stroke-width:1.42597"
       id="rect2181-3-5"
       width="10.634476"
       height="33.049999"
       x="119.68378"
       y="50"
       ry="1.9111062" />
    <rect
       style="fill:#ffffff;stroke-width:1.42598"
       id="rect2181-3-7-6"
       width="10.634476"
       height="33.049999"
       x="139.93991"
       y="50"
       ry="1.9111063" />
    <rect
       style="fill:#ffffff;stroke-width:1.42597"
       id="rect2181-3-5-1"
       width="10.634476"
       height="33.049999"
       x="160.19608"
       y="50"
       ry="1.9111062" />
    <rect
       style="fill:#ffffff;stroke-width:1.42598"
       id="rect2181-3-7-2"
       width="10.634476"
       height="33.049999"
       x="180.45221"
       y="50"
       ry="1.9111063" />
    <rect
       style="fill:#ffffff;stroke-width:1.42597"
       id="rect2181-3-5-9"
       width="10.634476"
       height="33.049999"
       x="200.70837"
       y="50"
       ry="1.9111062" />
    <rect
       style="fill:#ffffff;stroke-width:1.42598"
       id="rect2181-3-7-6-3"
       width="10.634476"
       height="33.049999"
       x="220.96449"
       y="50"
       ry="1.9111063" />
    <rect
       style="fill:#ffffff;stroke-width:1.42597"
       id="rect2181-3-5-1-1"
       width="10.634476"
       height="33.049999"
       x="241.22064"
       y="50"
       ry="1.9111062" />
    <rect
       style="fill:#ffffff;stroke-width:1.42598"
       id="rect2181-3-7-9"
       width="10.634476"
       height="33.049999"
       x="261.47681"
       y="50"
       ry="1.9111063" />
    <rect
       style="fill:#ffffff;stroke-width:1.42597"
       id="rect2181-3-5-4"
       width="10.634476"
       height="33.049999"
       x="281.73291"
       y="50"
       ry="1.9111062" />
    <rect
       style="fill:#ffffff;stroke-width:1.42598"
       id="rect2181-3-7-6-7"
       width="10.634476"
       height="33.049999"
       x="301.98904"
       y="50"
       ry="1.9111063" />
    <rect
       style="fill:#ffffff;stroke-width:1.42597"
       id="rect2181-3-5-1-8"
       width="10.634476"
       height="33.049999"
       x="322.24524"
       y="50"
       ry="1.9111062" />
    <rect
       style="fill:#ffffff;stroke-width:1.42598"
       id="rect2181-3-7-2-4"
       width="10.634476"
       height="33.049999"
       x="342.50134"
       y="50"
       ry="1.9111063" />
    <rect
       style="fill:#ffffff;stroke-width:1.42597"
       id="rect2181-3-5-9-5"
       width="10.634476"
       height="33.049999"
       x="362.75751"
       y="50"
       ry="1.9111062" />
    <path
       style="fill:#ffffff"
       id="path3042"
       d="m 131.90848,140.27982 c 9.88135,-5.23625 20.64184,-8.96675 31.65978,-10.93172 2.55351,-0.4554 5.14152,-0.68992 7.71228,-1.03488 2.54977,0.0309 5.11213,-0.1622 7.6493,0.0928 12.24947,1.23099 23.75545,6.64944 34.52802,12.23938 6.99256,3.38557 13.53967,7.90359 20.8758,10.57798 1.0257,0.37392 2.09377,0.6194 3.14065,0.92911 7.97876,2.0123 13.05748,0.10531 20.42591,-2.91133 7.0533,-3.53161 13.90393,-7.4709 20.53041,-11.74852 2.64141,-1.54761 6.42911,-4.21509 9.6035,-4.31713 0.83183,-0.0267 1.65588,0.16949 2.48382,0.25423 11.16331,2.64646 21.65557,7.55432 31.97371,12.46544 4.9136,2.27738 22.94302,12.70546 0.36117,-0.0577 0,0 13.60462,5.30665 13.60462,5.30665 v 0 c -8.19062,-4.83413 -16.24167,-9.93939 -24.88718,-13.94045 -5.68135,-2.62606 -11.36606,-5.20674 -17.19835,-7.48651 -3.01659,-1.17914 -8.46856,-3.22563 -11.70868,-4.11627 -1.27686,-0.35098 -2.59565,-0.52609 -3.89348,-0.78913 -0.94956,0.003 -1.9058,-0.10236 -2.84869,0.0101 -3.14526,0.37523 -7.15086,3.12143 -9.7449,4.8214 -6.39921,4.37561 -13.01142,8.51072 -20.1086,11.66622 -7.29155,2.80385 -12.32584,4.17719 -20.01958,1.9917 -8.22793,-2.80102 -15.67793,-7.34735 -23.38208,-11.303 -10.83823,-5.43797 -22.42865,-10.56494 -34.68742,-11.55075 -2.57449,-0.20704 -5.16536,0.0502 -7.74804,0.0752 -2.56608,0.39112 -5.14852,0.68684 -7.69824,1.17334 -11.42734,2.18044 -22.40467,6.11291 -33.13228,10.5334 0,0 12.50855,8.05037 12.50855,8.05037 z" />
    <rect
       style="fill:#1a1a1a;stroke-width:1.00198"
       id="rect3323"
       width="224"
       height="6.820776"
       x="124.75"
       y="119.98566"
       ry="3.410388" />
    <rect
       style="fill:#1a1a1a;stroke-width:0.979357"
       id="rect3323-7"
       width="214"
       height="6.820776"
       x="138.75"
       y="151.98566"
       ry="3.410388" />
    <rect
       style="fill:#1a1a1a;stroke-width:0.979357"
       id="rect3323-4"
       width="214"
       height="6.820776"
       x="138.75"
       y="185.98566"
       ry="3.410388" />
    <rect
       style="fill:#1a1a1a;stroke-width:0.676136"
       id="rect3323-5"
       width="102"
       height="6.820776"
       x="124.75"
       y="221.98566"
       ry="3.410388" />
    <circle
       style="fill:#1a1a1a;stroke-width:0.674038"
       id="path3434"
       cx="129.9747"
       cy="155.21036"
       r="5.2247033" />
    <circle
       style="fill:#1a1a1a;stroke-width:0.674038"
       id="path3434-2"
       cx="129.9747"
       cy="189.21036"
       r="5.2247033" />
    <rect
       style="fill:#ff0000;stroke-width:0.831724"
       id="rect3515"
       width="28"
       height="281.42673"
       x="-104.75"
       y="-371.41238"
       ry="10.924663"
       transform="scale(-1)" />
    <rect
       style="fill:#4d4d4d;stroke-width:0.863049"
       id="rect3569"
       width="31.15"
       height="25.230736"
       x="-106.15"
       y="-114.19091"
       ry="6.4922662"
       rx="0"
       transform="scale(-1)" />
    <rect
       style="fill:#ff5555;stroke-width:0.857844"
       id="rect3623"
       width="31.15"
       height="16.84149"
       x="-106.15"
       y="-105.06691"
       ry="6.4922662"
       transform="scale(-1)" />
    <path
       style="fill:#ff9955;stroke-width:1.47462"
       d="m 76.593283,363.15455 14.094491,41.5 14.225516,-40.84721 z"
       id="path3688" />
    <path
       style="fill:#000000;stroke-width:1.4385"
       d="m 84.249988,387.07181 7.151495,16.41385 5.848505,-16.75 z"
       id="path3688-5" />
    <rect
       style="fill:#000000;stroke-width:1.00293"
       id="rect3812"
       width="6.5"
       height="249"
       x="90.75"
       y="114.48566" />
  </g>
</svg>
